<?xml version="1.0" encoding="utf-8"?>
<svg viewBox="0 0 500 500" xmlns="http://www.w3.org/2000/svg" xmlns:xlink="http://www.w3.org/1999/xlink" xmlns:bx="https://boxy-svg.com">
  <defs>
    <linearGradient id="color-0" gradientUnits="userSpaceOnUse" gradientTransform="matrix(1.777787, 0, 0, 2.169495, 706.855344, -290.590235)" bx:pinned="true">
      <stop style="stop-color: rgb(255, 222, 173)"/>
    </linearGradient>
    <path id="text-path-0" d="M 91.163 200.235 C 160.16 144.547 340 144.547 410.013 203.146"/>
    <style bx:fonts="Alice">@import url(https://fonts.googleapis.com/css2?family=Alice%3Aital%2Cwght%400%2C400&amp;display=swap);</style>
  </defs>
  <path style="stroke: rgb(0, 0, 0); fill: url('#color-0'); stroke-width: 0px;" d="M 753.915591209 717.316191906 A 204.709 204.709 0 0 1 753.915591209 403.683808094 L 782.520925415 437.774317901 A 160.207 160.207 0 0 0 782.520925415 683.225682099 Z" transform="matrix(0, 0.561772, -1.020387, 0, 821.921927, -198.262852)" bx:shape="pie 885.5 560.5 160.207 204.709 220 320 1@49dd99c1"/>
  <rect x="41.947" y="220.511" width="31.413" height="150.381" style="stroke: rgb(0, 0, 0); fill: url('#color-0'); stroke-width: 0px;" rx="5.727" ry="5.727" transform="matrix(0.422618, -0.906308, 0.906308, 0.422618, -194.576712, 176.485243)"/>
  <rect x="41.947" y="220.511" width="31.413" height="150.381" style="stroke: rgb(0, 0, 0); fill: url('#color-0'); stroke-width: 0px;" rx="5.727" ry="5.727" transform="matrix(0.422618, -0.906308, 0.906308, 0.422618, -207.578145, 207.6785)"/>
  <rect x="57.677" y="561.233" width="9.749" height="38.739" style="stroke: rgb(0, 0, 0); fill: url('#color-0'); stroke-width: 0px;" transform="matrix(0.422619, -0.906307, 0.906307, 0.422619, -479.026858, 112.113519)"/>
  <rect x="41.947" y="220.511" width="31.413" height="150.381" style="stroke: rgb(0, 0, 0); fill: url('#color-0'); stroke-width: 0px;" rx="5.727" ry="5.727" transform="matrix(0.422619, 0.906308, -0.906308, 0.422619, 644.418149, 71.983412)"/>
  <rect x="41.947" y="220.511" width="31.413" height="150.381" style="stroke: rgb(0, 0, 0); fill: url('#color-0'); stroke-width: 0px;" rx="5.727" ry="5.727" transform="matrix(0.422619, 0.906308, -0.906308, 0.422619, 658.416998, 102.649921)"/>
  <rect x="57.677" y="561.233" width="9.749" height="38.739" style="stroke: rgb(0, 0, 0); fill: url('#color-0'); stroke-width: 0px;" transform="matrix(0.422617, 0.906308, -0.906308, 0.422617, 924.387471, -1.265746)"/>
  <text style="white-space: pre; fill: rgb(51, 51, 51); font-family: Arial, sans-serif; font-size: 28px;" x="207.849" y="303.142" transform="matrix(1, 0, 0, 1, 0, 19.190744400024414)"><tspan x="207.8489990234375" dy="1em">​</tspan></text>
  <text style="fill: url('#color-0'); font-family: Alice; font-size: 33px; text-transform: uppercase; word-spacing: 3px; white-space: pre;" transform="matrix(1, 0, 0, 1, 0, 14.68)"><textPath startOffset="14" xlink:href="#text-path-0">Gym Lifts Tracker</textPath></text>
</svg>