<?xml version="1.0" encoding="utf-8"?>
<svg viewBox="0 0 500 500" xmlns="http://www.w3.org/2000/svg" xmlns:xlink="http://www.w3.org/1999/xlink" xmlns:bx="https://boxy-svg.com">
  <defs>
    <linearGradient id="color-0" gradientUnits="userSpaceOnUse" gradientTransform="matrix(0.211149, 0, 0, 0.257672, 83.954563, -34.513676)" bx:pinned="true">
      <stop style="stop-color: rgb(255, 222, 173)"/>
    </linearGradient>
    <path id="text-path-0" d="M 91.163 200.235 C 160.16 144.547 340 144.547 410.013 203.146"/>
    <style bx:fonts="Alice">@import url(https://fonts.googleapis.com/css2?family=Alice%3Aital%2Cwght%400%2C400&amp;display=swap);</style>
  </defs>
  <path style="stroke: rgb(0, 0, 0); fill: url('#color-0'); stroke-width: 0px;" d="M 753.915591209 717.316191906 A 204.709 204.709 0 0 1 753.915591209 403.683808094 L 782.520925415 437.774317901 A 160.207 160.207 0 0 0 782.520925415 683.225682099 Z" transform="matrix(0, 0.393863, -0.715401, 0, 651.129336, -64.165588)" bx:shape="pie 885.5 560.5 160.207 204.709 220 320 1@49dd99c1"/>
  <rect x="29.409" y="154.602" width="22.024" height="105.434" style="stroke: rgb(0, 0, 0); fill: url('#color-0'); stroke-width: 0px;" rx="4.015" ry="4.015" transform="matrix(0.422618, -0.906308, 0.906308, 0.422618, -61.545224, 198.574491)"/>
  <rect x="29.409" y="154.602" width="22.024" height="105.434" style="stroke: rgb(0, 0, 0); fill: url('#color-0'); stroke-width: 0px;" rx="4.015" ry="4.015" transform="matrix(0.422618, -0.906308, 0.906308, 0.422618, -70.660536, 220.442914)"/>
  <rect x="40.438" y="393.484" width="6.836" height="27.16" style="stroke: rgb(0, 0, 0); fill: url('#color-0'); stroke-width: 0px;" transform="matrix(0.422619, -0.906307, 0.906307, 0.422619, -260.976318, 153.442776)"/>
  <rect x="29.409" y="154.602" width="22.024" height="105.434" style="stroke: rgb(0, 0, 0); fill: url('#color-0'); stroke-width: 0px;" rx="4.015" ry="4.015" transform="matrix(0.422619, 0.906308, -0.906308, 0.422619, 526.680297, 125.306557)"/>
  <rect x="29.409" y="154.602" width="22.024" height="105.434" style="stroke: rgb(0, 0, 0); fill: url('#color-0'); stroke-width: 0px;" rx="4.015" ry="4.015" transform="matrix(0.422619, 0.906308, -0.906308, 0.422619, 536.495269, 146.807029)"/>
  <rect x="40.438" y="393.484" width="6.836" height="27.161" style="stroke: rgb(0, 0, 0); fill: url('#color-0'); stroke-width: 0px;" transform="matrix(0.422617, 0.906308, -0.906308, 0.422617, 722.970175, 73.950462)"/>
  <text style="white-space: pre; fill: rgb(51, 51, 51); font-family: Arial, sans-serif; font-size: 28px;" x="207.849" y="303.142" transform="matrix(0.7011079788208008, 0, 0, 0.7011079788208008, 74.8736343383789, 88.2931137084961)"><tspan x="207.8489990234375" dy="1em">​</tspan></text>
  <text style="fill: url('#color-0'); font-family: Alice; font-size: 33px; text-transform: uppercase; word-spacing: 3px; white-space: pre;" transform="matrix(0.701108, 0, 0, 0.701108, 74.87366, 85.131467)"><textPath startOffset="10" xlink:href="#text-path-0">Gym Lifts Tracker</textPath></text>
</svg>